<?xml version="1.0" encoding="UTF-8"?><svg id="a" xmlns="http://www.w3.org/2000/svg" viewBox="0 0 1627.157 135.281"><defs><style>.b{isolation:isolate;}.c{fill:none;stroke:#756a56;}.d{fill:#756a56;}</style></defs><g class="b"><g class="b"><path class="d" d="M485.69,23.627v.251l-40.07,85.792h-3.643l-40.07-85.792v-.251h12.059l25.122,54.264c2.136,4.898,3.517,8.039,4.773,11.556,1.382-3.894,3.266-8.541,4.898-11.933l24.62-53.887h12.31Z"/><path class="d" d="M552.639,98.867v10.175h-53.51V23.627h52.379v10.175h-41.075v26.755h36.176v9.798h-36.176v28.513h42.205Z"/><path class="d" d="M632.651,108.665v.377h-12.938l-22.233-34.166h-16.078v34.166h-11.305V23.627h32.785c16.078,0,28.137,11.054,28.137,25.75,0,12.436-8.165,21.856-21.605,24.62l23.238,34.668ZM602.128,64.953c11.054,0,17.585-6.029,17.585-15.45,0-9.044-7.034-15.827-17.208-15.827h-21.103v31.277h20.726Z"/></g><g class="b"><path class="c" d="M485.69,23.627v.251l-40.07,85.792h-3.643l-40.07-85.792v-.251h12.059l25.122,54.264c2.136,4.898,3.517,8.039,4.773,11.556,1.382-3.894,3.266-8.541,4.898-11.933l24.62-53.887h12.31Z"/><path class="c" d="M552.639,98.867v10.175h-53.51V23.627h52.379v10.175h-41.075v26.755h36.176v9.798h-36.176v28.513h42.205Z"/><path class="c" d="M632.651,108.665v.377h-12.938l-22.233-34.166h-16.078v34.166h-11.305V23.627h32.785c16.078,0,28.137,11.054,28.137,25.75,0,12.436-8.165,21.856-21.605,24.62l23.238,34.668ZM602.128,64.953c11.054,0,17.585-6.029,17.585-15.45,0-9.044-7.034-15.827-17.208-15.827h-21.103v31.277h20.726Z"/></g><g class="b"><path class="d" d="M711.157,108.665v.377h-12.938l-22.233-34.166h-16.078v34.166h-11.305V23.627h32.784c16.078,0,28.137,11.054,28.137,25.75,0,12.436-8.165,21.856-21.605,24.62l23.238,34.668ZM680.634,64.953c11.054,0,17.585-6.029,17.585-15.45,0-9.044-7.034-15.827-17.208-15.827h-21.103v31.277h20.726Z"/></g><g class="b"><path class="c" d="M711.157,108.665v.377h-12.938l-22.233-34.166h-16.078v34.166h-11.305V23.627h32.784c16.078,0,28.137,11.054,28.137,25.75,0,12.436-8.165,21.856-21.605,24.62l23.238,34.668ZM680.634,64.953c11.054,0,17.585-6.029,17.585-15.45,0-9.044-7.034-15.827-17.208-15.827h-21.103v31.277h20.726Z"/></g><g class="b"><path class="d" d="M721.459,66.209c0-25.499,17.962-44.089,43.712-44.089s43.713,18.59,43.713,44.089c0,24.619-17.837,44.341-43.713,44.341s-43.712-19.722-43.712-44.341ZM797.453,66.209c0-19.596-12.812-33.915-32.282-33.915s-32.281,14.319-32.281,33.915c0,18.716,12.812,34.166,32.281,34.166s32.282-15.45,32.282-34.166Z"/></g><g class="b"><path class="c" d="M721.459,66.209c0-25.499,17.962-44.089,43.712-44.089s43.713,18.59,43.713,44.089c0,24.619-17.837,44.341-43.713,44.341s-43.712-19.722-43.712-44.341ZM797.453,66.209c0-19.596-12.812-33.915-32.282-33.915s-32.281,14.319-32.281,33.915c0,18.716,12.812,34.166,32.281,34.166s32.282-15.45,32.282-34.166Z"/></g><g class="b"><path class="d" d="M822.448,66.209c0-25.499,18.214-44.089,43.587-44.089,13.188,0,22.861,4.271,32.156,13.314l-6.281,7.285c-6.406-6.406-14.319-10.426-25.75-10.426-19.093,0-32.281,14.445-32.281,33.915,0,18.842,12.938,34.166,32.156,34.166,11.556,0,20.6-5.527,26.252-13.44l7.662,6.783c-7.285,10.174-19.092,16.832-34.04,16.832-26.001,0-43.461-19.847-43.461-44.341Z"/></g><g class="b"><path class="c" d="M822.448,66.209c0-25.499,18.214-44.089,43.587-44.089,13.188,0,22.861,4.271,32.156,13.314l-6.281,7.285c-6.406-6.406-14.319-10.426-25.75-10.426-19.093,0-32.281,14.445-32.281,33.915,0,18.842,12.938,34.166,32.156,34.166,11.556,0,20.6-5.527,26.252-13.44l7.662,6.783c-7.285,10.174-19.092,16.832-34.04,16.832-26.001,0-43.461-19.847-43.461-44.341Z"/></g><g class="b"><path class="d" d="M907.111,66.209c0-25.499,18.213-44.089,43.586-44.089,13.189,0,22.861,4.271,32.156,13.314l-6.28,7.285c-6.406-6.406-14.319-10.426-25.75-10.426-19.093,0-32.282,14.445-32.282,33.915,0,18.842,12.938,34.166,32.156,34.166,11.557,0,20.601-5.527,26.253-13.44l7.662,6.783c-7.285,10.174-19.093,16.832-34.04,16.832-26.002,0-43.461-19.847-43.461-44.341Z"/><path class="d" d="M999.812,23.627h11.305v37.181h47.354V23.627h11.18v85.415h-11.18v-37.935h-47.354v37.935h-11.305V23.627Z"/><path class="d" d="M1093.264,23.627h11.305v85.415h-11.305V23.627Z"/><path class="d" d="M1157.324,23.627h28.89c25.876,0,43.587,17.962,43.587,42.833,0,24.745-17.208,42.582-43.461,42.582h-29.016V23.627ZM1186.214,98.993c19.596,0,32.282-14.068,32.282-32.533,0-18.59-12.812-32.784-32.407-32.784h-17.46v65.317h17.585Z"/></g><g class="b"><path class="c" d="M907.111,66.209c0-25.499,18.213-44.089,43.586-44.089,13.189,0,22.861,4.271,32.156,13.314l-6.28,7.285c-6.406-6.406-14.319-10.426-25.75-10.426-19.093,0-32.282,14.445-32.282,33.915,0,18.842,12.938,34.166,32.156,34.166,11.557,0,20.601-5.527,26.253-13.44l7.662,6.783c-7.285,10.174-19.093,16.832-34.04,16.832-26.002,0-43.461-19.847-43.461-44.341Z"/><path class="c" d="M999.812,23.627h11.305v37.181h47.354V23.627h11.18v85.415h-11.18v-37.935h-47.354v37.935h-11.305V23.627Z"/><path class="c" d="M1093.264,23.627h11.305v85.415h-11.305V23.627Z"/><path class="c" d="M1157.324,23.627h28.89c25.876,0,43.587,17.962,43.587,42.833,0,24.745-17.208,42.582-43.461,42.582h-29.016V23.627ZM1186.214,98.993c19.596,0,32.282-14.068,32.282-32.533,0-18.59-12.812-32.784-32.407-32.784h-17.46v65.317h17.585Z"/></g><g class="b"><path class="d" d="M1301.9,98.867v10.175h-53.51V23.627h52.379v10.175h-41.074v26.755h36.176v9.798h-36.176v28.513h42.205Z"/></g><g class="b"><path class="c" d="M1301.9,98.867v10.175h-53.51V23.627h52.379v10.175h-41.074v26.755h36.176v9.798h-36.176v28.513h42.205Z"/></g><g class="b"><path class="d" d="M1313.077,100.249l5.653-8.918c6.28,5.652,15.073,9.044,24.493,9.044s17.963-4.899,17.963-13.691c0-9.672-9.672-13.44-19.721-16.832-13.315-4.522-25.75-11.556-25.75-25.499,0-14.193,12.561-22.232,27.132-22.232,9.672,0,17.836,2.386,26.755,8.667l-5.024,8.415c-7.16-4.772-13.691-7.033-21.229-7.033-8.29,0-16.204,3.768-16.204,11.556,0,9.17,9.421,12.687,18.968,16.078,14.193,4.773,26.378,11.556,26.378,26.253,0,15.449-12.938,24.494-29.142,24.494-11.682,0-22.609-4.02-30.272-10.301Z"/><path class="d" d="M1389.95,23.627h11.305v85.415h-11.305V23.627Z"/><path class="d" d="M1498.603,62.44v31.905c-8.164,10.426-20.349,16.204-34.794,16.204-25.75,0-43.964-18.842-43.964-44.341,0-24.494,16.832-44.089,43.713-44.089,13.44,0,24.243,5.149,32.784,14.068l-6.908,7.285c-6.909-7.285-15.199-11.18-25.625-11.18-20.223,0-32.533,14.696-32.533,33.915,0,19.972,13.189,34.166,33.413,34.166,9.42,0,17.711-3.392,23.488-9.798v-18.213h-24.996v-9.924h35.422Z"/><path class="d" d="M1589.293,23.627v86.043h-4.773l-49.616-56.65c-2.01-2.261-4.396-4.898-6.783-7.662.251,3.015.377,6.029.377,9.044v54.641h-11.18V22.999h4.648l48.987,56.022c2.387,2.512,4.899,5.275,7.411,8.29-.125-3.643-.251-7.285-.251-10.426V23.627h11.18Z"/></g><g class="b"><path class="c" d="M1313.077,100.249l5.653-8.918c6.28,5.652,15.073,9.044,24.493,9.044s17.963-4.899,17.963-13.691c0-9.672-9.672-13.44-19.721-16.832-13.315-4.522-25.75-11.556-25.75-25.499,0-14.193,12.561-22.232,27.132-22.232,9.672,0,17.836,2.386,26.755,8.667l-5.024,8.415c-7.16-4.772-13.691-7.033-21.229-7.033-8.29,0-16.204,3.768-16.204,11.556,0,9.17,9.421,12.687,18.968,16.078,14.193,4.773,26.378,11.556,26.378,26.253,0,15.449-12.938,24.494-29.142,24.494-11.682,0-22.609-4.02-30.272-10.301Z"/><path class="c" d="M1389.95,23.627h11.305v85.415h-11.305V23.627Z"/><path class="c" d="M1498.603,62.44v31.905c-8.164,10.426-20.349,16.204-34.794,16.204-25.75,0-43.964-18.842-43.964-44.341,0-24.494,16.832-44.089,43.713-44.089,13.44,0,24.243,5.149,32.784,14.068l-6.908,7.285c-6.909-7.285-15.199-11.18-25.625-11.18-20.223,0-32.533,14.696-32.533,33.915,0,19.972,13.189,34.166,33.413,34.166,9.42,0,17.711-3.392,23.488-9.798v-18.213h-24.996v-9.924h35.422Z"/><path class="c" d="M1589.293,23.627v86.043h-4.773l-49.616-56.65c-2.01-2.261-4.396-4.898-6.783-7.662.251,3.015.377,6.029.377,9.044v54.641h-11.18V22.999h4.648l48.987,56.022c2.387,2.512,4.899,5.275,7.411,8.29-.125-3.643-.251-7.285-.251-10.426V23.627h11.18Z"/></g></g><path class="d" d="M26.925,116.28c-1.634,0-3.237-.789-4.214-2.248-1.557-2.324-.934-5.471,1.39-7.027L152.848,20.781c1.712-1.146,3.949-1.142,5.655.012l127.565,86.224c2.318,1.566,2.927,4.715,1.36,7.033-1.567,2.317-4.717,2.925-7.033,1.359L155.654,31.096,29.739,115.423c-.866.579-1.845.857-2.814.857Z"/><path class="d" d="M374.567,116.28c-.977,0-1.963-.282-2.832-.87L246.994,31.096l-41.845,28.024c-2.327,1.556-5.471.934-7.028-1.39-1.557-2.325-.934-5.471,1.39-7.028l44.677-29.921c1.712-1.146,3.949-1.142,5.655.012l127.565,86.224c2.318,1.566,2.927,4.715,1.36,7.033-.979,1.448-2.576,2.229-4.201,2.229Z"/><path class="d" d="M60.947,90.595c-2.797,0-5.065-2.268-5.065-5.065V29.628c0-2.797,2.268-5.065,5.065-5.065h33.989c2.797,0,5.065,2.268,5.065,5.065v33.138c0,2.797-2.268,5.065-5.065,5.065s-5.065-2.268-5.065-5.065v-28.073h-23.858v50.836c0,2.798-2.268,5.065-5.065,5.065Z"/></svg>